<svg width="40" height="40" viewBox="0 0 40 40" fill="none" xmlns="http://www.w3.org/2000/svg">
<path fill-rule="evenodd" clip-rule="evenodd" d="M20 40C31.0457 40 40 31.0457 40 20C40 8.9543 31.0457 0 20 0C8.9543 0 0 8.9543 0 20C0 31.0457 8.9543 40 20 40Z" fill="#D7EAF8"/>
<g clip-path="url(#clip0_2125_23341)">
<path d="M20.1025 10.0176C14.5345 10.0176 10.0156 14.5365 10.0156 20.1045C10.0156 25.6724 14.5345 30.1913 20.1025 30.1913C25.6705 30.1913 30.1894 25.6724 30.1894 20.1045C30.1894 14.5365 25.6705 10.0176 20.1025 10.0176ZM20.1025 25.1479C19.5477 25.1479 19.0938 24.694 19.0938 24.1392V20.1045C19.0938 19.5497 19.5477 19.0958 20.1025 19.0958C20.6573 19.0958 21.1112 19.5497 21.1112 20.1045V24.1392C21.1112 24.694 20.6573 25.1479 20.1025 25.1479ZM21.1112 17.0784H19.0938V15.061H21.1112V17.0784Z" fill="#004173"/>
</g>
<defs>
<clipPath id="clip0_2125_23341">
<rect width="24.2085" height="24.2085" fill="white" transform="translate(8 8)"/>
</clipPath>
</defs>
</svg>
