<svg width="29" height="28" viewBox="0 0 29 28" fill="none" xmlns="http://www.w3.org/2000/svg">
<g id="replay">
<path id="Vector" d="M14.5002 5.83333V2.57833C14.5002 2.05333 13.8702 1.79667 13.5085 2.17L9.0752 6.59167C8.84186 6.825 8.84186 7.18667 9.0752 7.42L13.4969 11.8417C13.8702 12.2033 14.5002 11.9467 14.5002 11.4217V8.16667C18.8519 8.16667 22.2935 12.1567 21.3369 16.6717C20.7885 19.32 18.6419 21.455 16.0052 22.0033C11.8402 22.8783 8.1302 20.02 7.5702 16.1583C7.48853 15.5983 6.99853 15.1667 6.42686 15.1667C5.72686 15.1667 5.16686 15.785 5.2602 16.485C5.98353 21.6067 10.8602 25.3983 16.3785 24.325C20.0185 23.6133 22.9469 20.685 23.6585 17.045C24.8135 11.06 20.2635 5.83333 14.5002 5.83333Z" fill="#512BDA"/>
</g>
</svg>
