<svg width="28" height="28" viewBox="0 0 28 28" fill="none" xmlns="http://www.w3.org/2000/svg">
<g id="replay">
<path id="Vector" d="M14.0002 5.83329V2.57829C14.0002 2.05329 13.3702 1.79662 13.0085 2.16995L8.5752 6.59162C8.34186 6.82495 8.34186 7.18662 8.5752 7.41995L12.9969 11.8416C13.3702 12.2033 14.0002 11.9466 14.0002 11.4216V8.16662C18.3519 8.16662 21.7935 12.1566 20.8369 16.6716C20.2885 19.32 18.1419 21.455 15.5052 22.0033C11.3402 22.8783 7.6302 20.02 7.0702 16.1583C6.98853 15.5983 6.49853 15.1666 5.92686 15.1666C5.22686 15.1666 4.66686 15.785 4.7602 16.485C5.48353 21.6066 10.3602 25.3983 15.8785 24.325C19.5185 23.6133 22.4469 20.685 23.1585 17.045C24.3135 11.06 19.7635 5.83329 14.0002 5.83329Z" fill="#949494"/>
</g>
</svg>
