<svg width="40" height="40" viewBox="0 0 40 40" fill="none" xmlns="http://www.w3.org/2000/svg">
<path fill-rule="evenodd" clip-rule="evenodd" d="M20 40C31.0457 40 40 31.0457 40 20C40 8.9543 31.0457 0 20 0C8.9543 0 0 8.9543 0 20C0 31.0457 8.9543 40 20 40Z" fill="#DAEEDF"/>
<g clip-path="url(#clip0_2087_33891)">
<path d="M20.1042 10.0176C14.5363 10.0176 10.0173 14.5365 10.0173 20.1045C10.0173 25.6724 14.5363 30.1913 20.1042 30.1913C25.6722 30.1913 30.1911 25.6724 30.1911 20.1045C30.1911 14.5365 25.6722 10.0176 20.1042 10.0176ZM17.3707 24.4317L13.7495 20.8105C13.3561 20.4171 13.3561 19.7817 13.7495 19.3883C14.1429 18.9949 14.7783 18.9949 15.1717 19.3883L18.0868 22.2933L25.0266 15.3535C25.42 14.9601 26.0555 14.9601 26.4489 15.3535C26.8422 15.7469 26.8422 16.3824 26.4489 16.7758L18.7929 24.4317C18.4096 24.8251 17.7641 24.8251 17.3707 24.4317Z" fill="#328F45"/>
</g>
<defs>
<clipPath id="clip0_2087_33891">
<rect width="24.2085" height="24.2085" fill="white" transform="translate(8 8)"/>
</clipPath>
</defs>
</svg>
