<svg width="33" height="32" viewBox="0 0 33 32" fill="none" xmlns="http://www.w3.org/2000/svg">
<g id="Icon">
<path id="Vector" d="M6.46049 27.9999H26.5405C28.5938 27.9999 29.8738 25.7732 28.8472 23.9999L18.8072 6.65324C17.7805 4.87991 15.2205 4.87991 14.1938 6.65324L4.15382 23.9999C3.12715 25.7732 4.40715 27.9999 6.46049 27.9999ZM16.5005 18.6666C15.7672 18.6666 15.1672 18.0666 15.1672 17.3332V14.6666C15.1672 13.9332 15.7672 13.3332 16.5005 13.3332C17.2338 13.3332 17.8338 13.9332 17.8338 14.6666V17.3332C17.8338 18.0666 17.2338 18.6666 16.5005 18.6666ZM17.8338 23.9999H15.1672V21.3332H17.8338V23.9999Z" fill="#FE9800"/>
</g>
</svg>
